<svg xmlns="http://www.w3.org/2000/svg" width="512" height="512" viewBox="0 0 512 512" version="1.1">
	<path d="M 247.324 47.379 C 236.127 51.042, 228.536 59.182, 224.073 72.311 L 222.403 77.224 210.452 80.659 C 194.952 85.113, 180.977 90.758, 169.672 97.131 C 163.921 100.373, 160.184 101.923, 159.452 101.371 C 158.818 100.892, 156.347 99.026, 153.963 97.224 C 136.836 84.281, 111.148 93.070, 103.011 114.656 C 101.193 119.480, 100.881 121.983, 101.227 129 C 101.875 142.153, 107.623 151.800, 118.181 157.457 C 121.107 159.024, 123.650 160.425, 123.832 160.569 C 124.015 160.713, 121.596 165.196, 118.456 170.531 C 111.259 182.759, 107.072 192.428, 102.679 206.964 L 99.213 218.428 92.055 220.614 C 76.342 225.412, 68 236.113, 68 251.473 C 68 267.882, 79.908 281.987, 95.353 283.872 L 100.500 284.500 105.339 299.372 C 108.522 309.152, 112.869 319.512, 118.035 329.630 L 125.891 345.015 121.850 347.076 C 115.978 350.072, 109.235 357.266, 106.170 363.804 C 103.862 368.727, 103.501 370.789, 103.504 379 C 103.508 387.321, 103.848 389.192, 106.244 394.075 C 109.807 401.337, 117.111 408.674, 124 411.913 C 128.482 414.020, 130.981 414.498, 137.500 414.498 C 148.787 414.498, 154.586 411.612, 166.397 400.114 C 178.643 388.193, 178.541 388.235, 186.097 392.049 C 194.742 396.413, 213.783 402.600, 225 404.689 C 239.052 407.307, 270.393 407.058, 286 404.203 C 299.826 401.675, 312.415 398.113, 324.339 393.355 C 329.491 391.299, 334.080 390.054, 335.339 390.371 C 336.528 390.670, 340.995 394.734, 345.268 399.403 C 355.052 410.096, 362.303 414.063, 373.360 414.773 C 390.707 415.886, 403.853 406.648, 409.135 389.631 C 414.091 373.663, 406.616 355.122, 392.320 347.926 C 389.669 346.592, 387.327 345.402, 387.116 345.282 C 386.905 345.163, 390.611 337.288, 395.353 327.782 C 401.458 315.543, 405.072 306.767, 407.736 297.707 C 410.779 287.357, 411.880 284.837, 413.499 284.514 C 427.453 281.730, 432.894 278.846, 438.428 271.302 C 448.619 257.410, 446.821 239.055, 434.181 227.928 C 429.982 224.232, 420.892 220, 417.154 220 C 413.700 220, 412.116 217.372, 409.020 206.500 C 405.338 193.575, 400.585 182.131, 393.762 169.762 C 391.052 164.850, 388.985 160.713, 389.167 160.569 C 389.350 160.425, 391.887 159.028, 394.804 157.465 C 419.515 144.227, 417.636 107.244, 391.606 94.508 C 380.200 88.928, 368.835 90.177, 358.271 98.174 L 351.772 103.092 344.992 99.065 C 329.585 89.912, 313.166 83.219, 294.175 78.352 C 291.241 77.600, 290.620 76.816, 288.885 71.666 C 285.264 60.919, 278.240 52.763, 269.139 48.737 C 263.389 46.194, 252.936 45.543, 247.324 47.379 M 250.270 69.483 C 245.797 71.427, 243.008 76.372, 243.004 82.368 C 243 86.691, 243.434 87.669, 246.882 91.118 C 250.331 94.566, 251.309 95, 255.632 94.996 C 261.739 94.992, 266.083 92.453, 268.423 87.521 C 272.465 79.004, 265.244 67.877, 255.782 68.039 C 254.527 68.061, 252.046 68.710, 250.270 69.483 M 127.763 115.511 C 124.275 117.473, 122 121.865, 122 126.637 C 122 130.142, 123.101 131.481, 139.740 148.214 C 157.046 165.617, 157.444 166.110, 155.990 168.379 C 155.171 169.659, 151.781 174.729, 148.457 179.647 C 140.953 190.750, 135.613 203.027, 131.909 217.696 C 121.579 258.598, 129.078 299.442, 152.665 330.748 C 156.083 335.284, 159.175 339.474, 159.537 340.059 C 159.898 340.644, 152.536 348.862, 143.176 358.322 C 132.981 368.625, 125.888 376.598, 125.484 378.208 C 124.566 381.867, 126.600 387.540, 129.707 389.984 C 131.415 391.328, 133.772 392, 136.777 392 L 141.283 392 160.038 373.410 C 180.945 352.687, 178.363 353.938, 187.490 360.098 C 194.482 364.817, 208.711 371.543, 217.602 374.332 C 252.133 385.165, 293.380 379.720, 324.829 360.176 C 329.410 357.329, 333.529 355, 333.981 355 C 334.434 355, 342.654 363.085, 352.248 372.966 C 361.843 382.848, 370.942 391.408, 372.470 391.989 C 376.769 393.623, 381.598 392.222, 384.993 388.355 C 388.296 384.593, 388.757 381.328, 386.568 377.200 C 385.780 375.715, 377.905 367.305, 369.068 358.512 C 360.231 349.718, 353 341.913, 353 341.168 C 353 340.422, 355.432 336.482, 358.404 332.412 C 376.889 307.100, 386.348 272.369, 383.027 242 C 380.062 214.884, 373.081 194.458, 360.500 176.087 C 357.475 171.671, 355 167.569, 355 166.972 C 355 166.375, 362.590 158.150, 371.866 148.693 C 390.027 130.181, 391.335 128.094, 388.695 121.854 C 386.744 117.242, 383.849 114.919, 379.328 114.340 C 374.268 113.691, 372.324 115.209, 355.283 133.119 C 347.757 141.029, 340.867 147.871, 339.973 148.325 C 338.795 148.923, 335.672 147.337, 328.635 142.566 C 311.927 131.238, 296.236 124.327, 278.267 120.383 C 268.696 118.282, 244.295 118.013, 235.500 119.912 C 217.140 123.876, 195.952 133.163, 181.330 143.654 C 177.166 146.642, 173.333 148.944, 172.813 148.771 C 172.292 148.597, 164.335 140.897, 155.129 131.659 C 140.006 116.483, 138.010 114.819, 134.446 114.417 C 131.990 114.140, 129.466 114.553, 127.763 115.511 M 244.500 140.065 C 203.233 145.586, 168.400 174.679, 155.033 214.789 C 150.052 229.734, 148.699 239.544, 149.280 256.500 C 150.084 279.941, 155.099 295.906, 167.526 314.582 C 194.291 354.807, 246.178 371.010, 293.450 353.905 C 322.702 343.320, 344.362 321.067, 355.345 290.312 C 363.181 268.371, 363.198 239.586, 355.390 214.829 C 343.734 177.871, 312.831 149.357, 275.914 141.499 C 266.889 139.577, 252.913 138.940, 244.500 140.065 M 245.539 172.051 C 229.450 174.561, 216.516 180.848, 204.828 191.843 C 188.370 207.326, 179.689 225.767, 178.304 248.188 C 175.970 285.965, 198.300 317.356, 235.517 328.619 C 243.772 331.118, 263.929 331.165, 273 328.707 C 281.604 326.376, 292.876 320.977, 300.506 315.533 C 341.670 286.159, 342.162 220.686, 301.465 187.696 C 286.417 175.497, 263.875 169.191, 245.539 172.051 M 248.286 195.394 C 237.515 198.905, 228.627 207.073, 224.935 216.853 C 219.348 231.659, 226.334 250.092, 240.581 258.133 C 245.219 260.750, 246.014 261.650, 246.498 264.828 C 246.806 266.848, 247.673 271.875, 248.425 276 L 249.793 283.500 246.481 286.500 C 240.888 291.567, 239.601 296.393, 242.398 301.802 C 246.828 310.369, 257.776 312.110, 264.185 305.266 C 269.393 299.704, 269.074 293.407, 263.291 287.624 C 259.796 284.129, 259.675 283.789, 260.808 280.654 C 261.464 278.841, 262 275.545, 262 273.328 C 262 266.220, 263.662 263.350, 270.015 259.491 C 283.380 251.372, 289.785 240.365, 288.737 227.317 C 287.116 207.119, 265.253 189.865, 248.286 195.394 M 246.319 213.884 C 239.364 218.922, 236.663 228.622, 240.277 235.581 C 241.157 237.276, 244.531 241.591, 247.775 245.171 L 253.674 251.680 256.757 249.090 C 258.452 247.666, 261.839 244.835, 264.282 242.800 C 272.036 236.342, 273.950 228.660, 269.893 220.279 C 265.389 210.974, 254.437 208.003, 246.319 213.884 M 95.121 240.710 C 87.987 244.225, 85.652 254.056, 90.564 259.894 C 96.323 266.738, 107.532 265.673, 111.551 257.901 C 114.833 251.554, 111.914 243.115, 105.510 240.440 C 101.120 238.606, 99.297 238.653, 95.121 240.710 M 406.445 240.068 C 396.880 242.848, 395.087 257.080, 403.600 262.657 C 406.875 264.803, 413.586 264.797, 417.733 262.645 C 427.346 257.654, 424.972 243.032, 414.057 239.999 C 410.046 238.885, 410.532 238.880, 406.445 240.068" stroke="none" fill="black" fill-rule="evenodd"/>
</svg>